<svg viewBox="0 0 35 37" fill="none" xmlns="http://www.w3.org/2000/svg">
<path d="M17.7139 23.6667C20.4753 23.6667 22.7139 21.4282 22.7139 18.6667C22.7139 15.9053 20.4753 13.6667 17.7139 13.6667C14.9524 13.6667 12.7139 15.9053 12.7139 18.6667C12.7139 21.4282 14.9524 23.6667 17.7139 23.6667Z" stroke="currentColor" stroke-width="3"/>
<path d="M20.6553 2.25333C20.0436 2 19.267 2 17.7136 2C16.1603 2 15.3836 2 14.772 2.25333C14.3673 2.42085 13.9996 2.66649 13.6898 2.97621C13.3801 3.28592 13.1345 3.65363 12.967 4.05833C12.8136 4.43 12.752 4.865 12.7286 5.49667C12.7178 5.95322 12.5913 6.39955 12.361 6.79392C12.1308 7.1883 11.8042 7.51782 11.412 7.75167C11.0133 7.97462 10.5646 8.09279 10.1079 8.09512C9.6511 8.09745 9.20122 7.98387 8.80031 7.765C8.24031 7.46833 7.83531 7.305 7.43364 7.25167C6.55751 7.13645 5.67148 7.37384 4.97031 7.91167C4.44698 8.31667 4.05697 8.98833 3.28031 10.3333C2.50364 11.6783 2.11364 12.35 2.02864 13.0083C1.97137 13.4424 2.00017 13.8835 2.11342 14.3065C2.22666 14.7294 2.42213 15.1259 2.68864 15.4733C2.93531 15.7933 3.28031 16.0617 3.81531 16.3983C4.60364 16.8933 5.11031 17.7367 5.11031 18.6667C5.11031 19.5967 4.60364 20.44 3.81531 20.9333C3.28031 21.2717 2.93364 21.54 2.68864 21.86C2.42213 22.2074 2.22666 22.6039 2.11342 23.0268C2.00017 23.4498 1.97137 23.8909 2.02864 24.325C2.11531 24.9817 2.50364 25.655 3.27864 27C4.05698 28.345 4.44531 29.0167 4.97031 29.4217C5.3177 29.6882 5.7142 29.8836 6.13715 29.9969C6.5601 30.1101 7.00122 30.1389 7.43531 30.0817C7.83531 30.0283 8.24031 29.865 8.80031 29.5683C9.20122 29.3495 9.6511 29.2359 10.1079 29.2382C10.5646 29.2405 11.0133 29.3587 11.412 29.5817C12.217 30.0483 12.6953 30.9067 12.7286 31.8367C12.752 32.47 12.812 32.9033 12.967 33.275C13.1345 33.6797 13.3801 34.0474 13.6898 34.3571C13.9996 34.6668 14.3673 34.9125 14.772 35.08C15.3836 35.3333 16.1603 35.3333 17.7136 35.3333C19.267 35.3333 20.0436 35.3333 20.6553 35.08C21.06 34.9125 21.4277 34.6668 21.7374 34.3571C22.0471 34.0474 22.2928 33.6797 22.4603 33.275C22.6136 32.9033 22.6753 32.47 22.6986 31.8367C22.732 30.9067 23.2103 30.0467 24.0153 29.5817C24.414 29.3587 24.8627 29.2405 25.3194 29.2382C25.7762 29.2359 26.2261 29.3495 26.627 29.5683C27.187 29.865 27.592 30.0283 27.992 30.0817C28.4261 30.1389 28.8672 30.1101 29.2901 29.9969C29.7131 29.8836 30.1096 29.6882 30.457 29.4217C30.982 29.0183 31.3703 28.345 32.147 27C32.9236 25.655 33.3136 24.9833 33.3986 24.325C33.4559 23.8909 33.4271 23.4498 33.3139 23.0268C33.2006 22.6039 33.0052 22.2074 32.7386 21.86C32.492 21.54 32.147 21.2717 31.612 20.935C31.2219 20.6973 30.8984 20.3646 30.6719 19.9678C30.4454 19.5711 30.3233 19.1234 30.317 18.6667C30.317 17.7367 30.8236 16.8933 31.612 16.4C32.147 16.0617 32.4936 15.7933 32.7386 15.4733C33.0052 15.1259 33.2006 14.7294 33.3139 14.3065C33.4271 13.8835 33.4559 13.4424 33.3986 13.0083C33.312 12.3517 32.9236 11.6783 32.1486 10.3333C31.3703 8.98833 30.982 8.31667 30.457 7.91167C30.1096 7.64515 29.7131 7.44969 29.2901 7.33644C28.8672 7.2232 28.4261 7.19439 27.992 7.25167C27.592 7.305 27.187 7.46833 26.6253 7.765C26.2246 7.98357 25.775 8.09699 25.3186 8.09466C24.8622 8.09233 24.4138 7.97432 24.0153 7.75167C23.623 7.51782 23.2965 7.1883 23.0662 6.79392C22.836 6.39955 22.7095 5.95322 22.6986 5.49667C22.6753 4.86333 22.6153 4.43 22.4603 4.05833C22.2928 3.65363 22.0471 3.28592 21.7374 2.97621C21.4277 2.66649 21.06 2.42085 20.6553 2.25333Z" stroke="currentColor" stroke-width="3"/>
</svg>
